<mxfile host="app.diagrams.net" modified="2021-04-27T19:43:49.242Z" agent="5.0 (Windows NT 10.0; Win64; x64) AppleWebKit/537.36 (KHTML, like Gecko) Chrome/90.0.4430.85 Safari/537.36 Edg/90.0.818.46" etag="fMT65sZ8SvDCXNOarSt6" version="14.6.6" type="github">
  <diagram id="L5gH6HMIdPc6Zd78SObS" name="Page-1">
    <mxGraphModel dx="981" dy="548" grid="1" gridSize="10" guides="1" tooltips="1" connect="1" arrows="1" fold="1" page="1" pageScale="1" pageWidth="850" pageHeight="1100" math="0" shadow="0">
      <root>
        <mxCell id="0" />
        <mxCell id="1" parent="0" />
        <mxCell id="-F0Pu-61zwkLYcMV9jJP-1" value="Hiker" style="shape=table;startSize=30;container=1;collapsible=1;childLayout=tableLayout;fixedRows=1;rowLines=0;fontStyle=1;align=center;resizeLast=1;" vertex="1" parent="1">
          <mxGeometry x="340" width="180" height="250" as="geometry" />
        </mxCell>
        <mxCell id="-F0Pu-61zwkLYcMV9jJP-2" value="" style="shape=partialRectangle;collapsible=0;dropTarget=0;pointerEvents=0;fillColor=none;top=0;left=0;bottom=1;right=0;points=[[0,0.5],[1,0.5]];portConstraint=eastwest;" vertex="1" parent="-F0Pu-61zwkLYcMV9jJP-1">
          <mxGeometry y="30" width="180" height="30" as="geometry" />
        </mxCell>
        <mxCell id="-F0Pu-61zwkLYcMV9jJP-3" value="PK" style="shape=partialRectangle;connectable=0;fillColor=none;top=0;left=0;bottom=0;right=0;fontStyle=1;overflow=hidden;" vertex="1" parent="-F0Pu-61zwkLYcMV9jJP-2">
          <mxGeometry width="30" height="30" as="geometry" />
        </mxCell>
        <mxCell id="-F0Pu-61zwkLYcMV9jJP-4" value="HikerID" style="shape=partialRectangle;connectable=0;fillColor=none;top=0;left=0;bottom=0;right=0;align=left;spacingLeft=6;fontStyle=5;overflow=hidden;" vertex="1" parent="-F0Pu-61zwkLYcMV9jJP-2">
          <mxGeometry x="30" width="150" height="30" as="geometry" />
        </mxCell>
        <mxCell id="-F0Pu-61zwkLYcMV9jJP-5" value="" style="shape=partialRectangle;collapsible=0;dropTarget=0;pointerEvents=0;fillColor=none;top=0;left=0;bottom=0;right=0;points=[[0,0.5],[1,0.5]];portConstraint=eastwest;" vertex="1" parent="-F0Pu-61zwkLYcMV9jJP-1">
          <mxGeometry y="60" width="180" height="30" as="geometry" />
        </mxCell>
        <mxCell id="-F0Pu-61zwkLYcMV9jJP-6" value="" style="shape=partialRectangle;connectable=0;fillColor=none;top=0;left=0;bottom=0;right=0;editable=1;overflow=hidden;" vertex="1" parent="-F0Pu-61zwkLYcMV9jJP-5">
          <mxGeometry width="30" height="30" as="geometry" />
        </mxCell>
        <mxCell id="-F0Pu-61zwkLYcMV9jJP-7" value="UserName" style="shape=partialRectangle;connectable=0;fillColor=none;top=0;left=0;bottom=0;right=0;align=left;spacingLeft=6;overflow=hidden;" vertex="1" parent="-F0Pu-61zwkLYcMV9jJP-5">
          <mxGeometry x="30" width="150" height="30" as="geometry" />
        </mxCell>
        <mxCell id="-F0Pu-61zwkLYcMV9jJP-8" value="" style="shape=partialRectangle;collapsible=0;dropTarget=0;pointerEvents=0;fillColor=none;top=0;left=0;bottom=0;right=0;points=[[0,0.5],[1,0.5]];portConstraint=eastwest;" vertex="1" parent="-F0Pu-61zwkLYcMV9jJP-1">
          <mxGeometry y="90" width="180" height="30" as="geometry" />
        </mxCell>
        <mxCell id="-F0Pu-61zwkLYcMV9jJP-9" value="" style="shape=partialRectangle;connectable=0;fillColor=none;top=0;left=0;bottom=0;right=0;editable=1;overflow=hidden;" vertex="1" parent="-F0Pu-61zwkLYcMV9jJP-8">
          <mxGeometry width="30" height="30" as="geometry" />
        </mxCell>
        <mxCell id="-F0Pu-61zwkLYcMV9jJP-10" value="FirstName" style="shape=partialRectangle;connectable=0;fillColor=none;top=0;left=0;bottom=0;right=0;align=left;spacingLeft=6;overflow=hidden;" vertex="1" parent="-F0Pu-61zwkLYcMV9jJP-8">
          <mxGeometry x="30" width="150" height="30" as="geometry" />
        </mxCell>
        <mxCell id="-F0Pu-61zwkLYcMV9jJP-11" value="" style="shape=partialRectangle;collapsible=0;dropTarget=0;pointerEvents=0;fillColor=none;top=0;left=0;bottom=0;right=0;points=[[0,0.5],[1,0.5]];portConstraint=eastwest;" vertex="1" parent="-F0Pu-61zwkLYcMV9jJP-1">
          <mxGeometry y="120" width="180" height="30" as="geometry" />
        </mxCell>
        <mxCell id="-F0Pu-61zwkLYcMV9jJP-12" value="" style="shape=partialRectangle;connectable=0;fillColor=none;top=0;left=0;bottom=0;right=0;editable=1;overflow=hidden;" vertex="1" parent="-F0Pu-61zwkLYcMV9jJP-11">
          <mxGeometry width="30" height="30" as="geometry" />
        </mxCell>
        <mxCell id="-F0Pu-61zwkLYcMV9jJP-13" value="LastName" style="shape=partialRectangle;connectable=0;fillColor=none;top=0;left=0;bottom=0;right=0;align=left;spacingLeft=6;overflow=hidden;" vertex="1" parent="-F0Pu-61zwkLYcMV9jJP-11">
          <mxGeometry x="30" width="150" height="30" as="geometry" />
        </mxCell>
        <mxCell id="-F0Pu-61zwkLYcMV9jJP-28" value="" style="shape=partialRectangle;collapsible=0;dropTarget=0;pointerEvents=0;fillColor=none;top=0;left=0;bottom=0;right=0;points=[[0,0.5],[1,0.5]];portConstraint=eastwest;" vertex="1" parent="-F0Pu-61zwkLYcMV9jJP-1">
          <mxGeometry y="150" width="180" height="30" as="geometry" />
        </mxCell>
        <mxCell id="-F0Pu-61zwkLYcMV9jJP-29" value="" style="shape=partialRectangle;connectable=0;fillColor=none;top=0;left=0;bottom=0;right=0;editable=1;overflow=hidden;" vertex="1" parent="-F0Pu-61zwkLYcMV9jJP-28">
          <mxGeometry width="30" height="30" as="geometry" />
        </mxCell>
        <mxCell id="-F0Pu-61zwkLYcMV9jJP-30" value="Address" style="shape=partialRectangle;connectable=0;fillColor=none;top=0;left=0;bottom=0;right=0;align=left;spacingLeft=6;overflow=hidden;" vertex="1" parent="-F0Pu-61zwkLYcMV9jJP-28">
          <mxGeometry x="30" width="150" height="30" as="geometry" />
        </mxCell>
        <mxCell id="-F0Pu-61zwkLYcMV9jJP-32" value="" style="shape=partialRectangle;collapsible=0;dropTarget=0;pointerEvents=0;fillColor=none;top=0;left=0;bottom=0;right=0;points=[[0,0.5],[1,0.5]];portConstraint=eastwest;" vertex="1" parent="-F0Pu-61zwkLYcMV9jJP-1">
          <mxGeometry y="180" width="180" height="30" as="geometry" />
        </mxCell>
        <mxCell id="-F0Pu-61zwkLYcMV9jJP-33" value="" style="shape=partialRectangle;connectable=0;fillColor=none;top=0;left=0;bottom=0;right=0;editable=1;overflow=hidden;" vertex="1" parent="-F0Pu-61zwkLYcMV9jJP-32">
          <mxGeometry width="30" height="30" as="geometry" />
        </mxCell>
        <mxCell id="-F0Pu-61zwkLYcMV9jJP-34" value="ZipCode" style="shape=partialRectangle;connectable=0;fillColor=none;top=0;left=0;bottom=0;right=0;align=left;spacingLeft=6;overflow=hidden;" vertex="1" parent="-F0Pu-61zwkLYcMV9jJP-32">
          <mxGeometry x="30" width="150" height="30" as="geometry" />
        </mxCell>
        <mxCell id="-F0Pu-61zwkLYcMV9jJP-36" value="" style="shape=partialRectangle;collapsible=0;dropTarget=0;pointerEvents=0;fillColor=none;top=0;left=0;bottom=0;right=0;points=[[0,0.5],[1,0.5]];portConstraint=eastwest;" vertex="1" parent="-F0Pu-61zwkLYcMV9jJP-1">
          <mxGeometry y="210" width="180" height="30" as="geometry" />
        </mxCell>
        <mxCell id="-F0Pu-61zwkLYcMV9jJP-37" value="" style="shape=partialRectangle;connectable=0;fillColor=none;top=0;left=0;bottom=0;right=0;editable=1;overflow=hidden;" vertex="1" parent="-F0Pu-61zwkLYcMV9jJP-36">
          <mxGeometry width="30" height="30" as="geometry" />
        </mxCell>
        <mxCell id="-F0Pu-61zwkLYcMV9jJP-38" value="Email" style="shape=partialRectangle;connectable=0;fillColor=none;top=0;left=0;bottom=0;right=0;align=left;spacingLeft=6;overflow=hidden;" vertex="1" parent="-F0Pu-61zwkLYcMV9jJP-36">
          <mxGeometry x="30" width="150" height="30" as="geometry" />
        </mxCell>
        <mxCell id="-F0Pu-61zwkLYcMV9jJP-14" value="Plants" style="shape=table;startSize=30;container=1;collapsible=1;childLayout=tableLayout;fixedRows=1;rowLines=0;fontStyle=1;align=center;resizeLast=1;" vertex="1" parent="1">
          <mxGeometry x="50" width="180" height="160" as="geometry" />
        </mxCell>
        <mxCell id="-F0Pu-61zwkLYcMV9jJP-15" value="" style="shape=partialRectangle;collapsible=0;dropTarget=0;pointerEvents=0;fillColor=none;top=0;left=0;bottom=1;right=0;points=[[0,0.5],[1,0.5]];portConstraint=eastwest;" vertex="1" parent="-F0Pu-61zwkLYcMV9jJP-14">
          <mxGeometry y="30" width="180" height="30" as="geometry" />
        </mxCell>
        <mxCell id="-F0Pu-61zwkLYcMV9jJP-16" value="PK" style="shape=partialRectangle;connectable=0;fillColor=none;top=0;left=0;bottom=0;right=0;fontStyle=1;overflow=hidden;" vertex="1" parent="-F0Pu-61zwkLYcMV9jJP-15">
          <mxGeometry width="30" height="30" as="geometry" />
        </mxCell>
        <mxCell id="-F0Pu-61zwkLYcMV9jJP-17" value="PlantID" style="shape=partialRectangle;connectable=0;fillColor=none;top=0;left=0;bottom=0;right=0;align=left;spacingLeft=6;fontStyle=5;overflow=hidden;" vertex="1" parent="-F0Pu-61zwkLYcMV9jJP-15">
          <mxGeometry x="30" width="150" height="30" as="geometry" />
        </mxCell>
        <mxCell id="-F0Pu-61zwkLYcMV9jJP-18" value="" style="shape=partialRectangle;collapsible=0;dropTarget=0;pointerEvents=0;fillColor=none;top=0;left=0;bottom=0;right=0;points=[[0,0.5],[1,0.5]];portConstraint=eastwest;" vertex="1" parent="-F0Pu-61zwkLYcMV9jJP-14">
          <mxGeometry y="60" width="180" height="30" as="geometry" />
        </mxCell>
        <mxCell id="-F0Pu-61zwkLYcMV9jJP-19" value="" style="shape=partialRectangle;connectable=0;fillColor=none;top=0;left=0;bottom=0;right=0;editable=1;overflow=hidden;" vertex="1" parent="-F0Pu-61zwkLYcMV9jJP-18">
          <mxGeometry width="30" height="30" as="geometry" />
        </mxCell>
        <mxCell id="-F0Pu-61zwkLYcMV9jJP-20" value="PlantImage" style="shape=partialRectangle;connectable=0;fillColor=none;top=0;left=0;bottom=0;right=0;align=left;spacingLeft=6;overflow=hidden;" vertex="1" parent="-F0Pu-61zwkLYcMV9jJP-18">
          <mxGeometry x="30" width="150" height="30" as="geometry" />
        </mxCell>
        <mxCell id="-F0Pu-61zwkLYcMV9jJP-21" value="" style="shape=partialRectangle;collapsible=0;dropTarget=0;pointerEvents=0;fillColor=none;top=0;left=0;bottom=0;right=0;points=[[0,0.5],[1,0.5]];portConstraint=eastwest;" vertex="1" parent="-F0Pu-61zwkLYcMV9jJP-14">
          <mxGeometry y="90" width="180" height="30" as="geometry" />
        </mxCell>
        <mxCell id="-F0Pu-61zwkLYcMV9jJP-22" value="" style="shape=partialRectangle;connectable=0;fillColor=none;top=0;left=0;bottom=0;right=0;editable=1;overflow=hidden;" vertex="1" parent="-F0Pu-61zwkLYcMV9jJP-21">
          <mxGeometry width="30" height="30" as="geometry" />
        </mxCell>
        <mxCell id="-F0Pu-61zwkLYcMV9jJP-23" value="PlantDescription" style="shape=partialRectangle;connectable=0;fillColor=none;top=0;left=0;bottom=0;right=0;align=left;spacingLeft=6;overflow=hidden;" vertex="1" parent="-F0Pu-61zwkLYcMV9jJP-21">
          <mxGeometry x="30" width="150" height="30" as="geometry" />
        </mxCell>
        <mxCell id="-F0Pu-61zwkLYcMV9jJP-24" value="" style="shape=partialRectangle;collapsible=0;dropTarget=0;pointerEvents=0;fillColor=none;top=0;left=0;bottom=0;right=0;points=[[0,0.5],[1,0.5]];portConstraint=eastwest;" vertex="1" parent="-F0Pu-61zwkLYcMV9jJP-14">
          <mxGeometry y="120" width="180" height="30" as="geometry" />
        </mxCell>
        <mxCell id="-F0Pu-61zwkLYcMV9jJP-25" value="" style="shape=partialRectangle;connectable=0;fillColor=none;top=0;left=0;bottom=0;right=0;editable=1;overflow=hidden;" vertex="1" parent="-F0Pu-61zwkLYcMV9jJP-24">
          <mxGeometry width="30" height="30" as="geometry" />
        </mxCell>
        <mxCell id="-F0Pu-61zwkLYcMV9jJP-26" value="Vote" style="shape=partialRectangle;connectable=0;fillColor=none;top=0;left=0;bottom=0;right=0;align=left;spacingLeft=6;overflow=hidden;" vertex="1" parent="-F0Pu-61zwkLYcMV9jJP-24">
          <mxGeometry x="30" width="150" height="30" as="geometry" />
        </mxCell>
      </root>
    </mxGraphModel>
  </diagram>
</mxfile>
